<svg width="104" height="104" viewBox="0 0 104 104" fill="none" xmlns="http://www.w3.org/2000/svg">
<path d="M52 51.7227H2C2 78.7562 33.3432 102 33.3432 102H52" stroke="black" stroke-width="4" stroke-linecap="round" stroke-linejoin="round"/>
<path d="M16.5515 57.9003C16.5515 77.8235 37.1677 92.5253 37.1677 92.5253M52.0002 51.7227H102C102 78.7563 70.6569 102 70.6569 102H52.0002M25.2272 51.7227C21.5894 36.9417 45.9137 26.7806 67.7407 23.642L69.8758 19.3769L78.4812 30.7289L73.7596 31.5619C71.4488 39.8046 59.8812 51.7227 59.8812 51.7227" stroke="black" stroke-width="4" stroke-linecap="round" stroke-linejoin="round"/>
<path d="M29.0542 51.7227C29.8326 44.1137 37.9623 35.5484 68.9785 25.267" stroke="black" stroke-width="4" stroke-linecap="round" stroke-linejoin="round"/>
<path d="M69.7786 26.3259C58.0489 32.703 44.3732 40.0305 34.7894 51.7227M72.0678 29.3385C59.8786 47.3081 52.0002 51.7227 52.0002 51.7227M45.257 51.7227C52.6083 47.0587 70.9056 27.8043 70.9056 27.8043M76.5327 28.2121L98.5624 8.83743C98.9246 8.51965 99.2254 8.12743 99.4477 7.68325C99.67 7.23907 99.8094 6.75164 99.8579 6.24891C99.9063 5.74617 99.8629 5.23799 99.7301 4.75349C99.5973 4.269 99.3778 3.81769 99.084 3.42544C98.7913 3.03277 98.43 2.70659 98.021 2.46559C97.612 2.22458 97.1632 2.07346 96.7003 2.02088C96.2374 1.96829 95.7695 2.01528 95.3234 2.15915C94.8772 2.30301 94.4616 2.54094 94.1002 2.85931L72.0678 22.234" stroke="black" stroke-width="4" stroke-linecap="round" stroke-linejoin="round"/>
</svg>
