<svg width="106" height="106" viewBox="0 0 106 106" fill="none" xmlns="http://www.w3.org/2000/svg">
<path d="M3 103C3.04915 98.1805 4.32793 93.4521 6.71669 89.2574C9.22976 84.8929 12.8515 81.2602 17.2201 78.7222C21.5887 76.1843 26.5512 74.83 31.6115 74.7947C41.8188 74.8179 51.4806 80.4234 56.5063 89.2574C58.8938 93.4498 60.1725 98.1754 60.223 102.992M75.9624 9.34871V3M97.7717 17.1452L103 13.4986M54.1376 17.1452L48.9015 13.4986M31.6037 61.3075C33.5347 61.352 35.4551 61.0125 37.2522 60.309C39.0492 59.6055 40.6866 58.5522 42.0681 57.2109C43.4497 55.8696 44.5474 54.2675 45.2969 52.4986C46.0464 50.7298 46.4325 48.8299 46.4325 46.9106C46.4325 44.9914 46.0464 43.0915 45.2969 41.3227C44.5474 39.5538 43.4497 37.9517 42.0681 36.6104C40.6866 35.2691 39.0492 34.2158 37.2522 33.5123C35.4551 32.8088 33.5347 32.4693 31.6037 32.5138C27.8192 32.601 24.2192 34.1561 21.5737 36.8465C18.9281 39.537 17.447 43.1492 17.447 46.9106C17.447 50.6721 18.9281 54.2843 21.5737 56.9748C24.2192 59.6652 27.8192 61.2203 31.6037 61.3075ZM91.8032 37.8018C91.79 35.7065 91.3603 33.6344 90.539 31.7045C89.7177 29.7746 88.5208 28.0249 87.017 26.5559C85.5133 25.0869 83.7324 23.9275 81.7765 23.1443C79.8206 22.3611 77.7282 21.9695 75.6196 21.9919C73.5118 22.0569 71.4376 22.5349 69.5163 23.3986C67.5949 24.2623 65.8641 25.4946 64.4234 27.0248C62.9826 28.5549 61.8602 30.3528 61.1207 32.3152C60.3812 34.2776 60.039 36.3658 60.1139 38.4599C60.2668 41.2607 61.1578 43.9723 62.6976 46.3231C64.2375 48.6739 66.372 50.5813 68.8875 51.8541V59.5965C68.9016 60.0518 69.0931 60.4839 69.4216 60.8016C69.7501 61.1194 70.19 61.298 70.6484 61.2998H81.2531C81.7129 61.3 82.1547 61.1223 82.4849 60.8043C82.815 60.4864 83.0076 60.0531 83.0218 59.5965V51.7148C85.6138 50.3994 87.7994 48.4117 89.3467 45.9623C90.8941 43.5129 91.7378 40.6931 91.8032 37.8018Z" stroke="black" stroke-width="5" stroke-linecap="round" stroke-linejoin="round"/>
</svg>
