<svg width="164" height="33" viewBox="0 0 164 33" fill="none" xmlns="http://www.w3.org/2000/svg">
<path d="M2.55875 26V3.6H8.89475V26H2.55875ZM24.5105 8.368C25.8545 8.368 27.0705 8.64533 28.1585 9.2C29.2465 9.73333 30.0998 10.5653 30.7185 11.696C31.3585 12.8267 31.6785 14.288 31.6785 16.08V26H25.5985V17.072C25.5985 15.8347 25.3425 14.9387 24.8305 14.384C24.3398 13.808 23.6465 13.52 22.7505 13.52C22.1105 13.52 21.5238 13.6693 20.9905 13.968C20.4572 14.2453 20.0412 14.6827 19.7425 15.28C19.4438 15.8773 19.2945 16.656 19.2945 17.616V26H13.2145V8.656H19.0065V13.584L17.8865 12.144C18.5478 10.8853 19.4545 9.94667 20.6065 9.328C21.7585 8.688 23.0598 8.368 24.5105 8.368ZM44.2945 32.496C42.6305 32.496 41.0412 32.304 39.5265 31.92C38.0332 31.536 36.7532 30.9707 35.6865 30.224L37.8945 25.968C38.6198 26.544 39.5158 26.992 40.5825 27.312C41.6705 27.6533 42.7265 27.824 43.7505 27.824C45.3932 27.824 46.5772 27.4613 47.3025 26.736C48.0278 26.032 48.3905 24.9973 48.3905 23.632V21.584L48.7105 16.72L48.6785 11.824V8.656H54.4705V22.832C54.4705 26.1173 53.5852 28.5493 51.8145 30.128C50.0438 31.7067 47.5372 32.496 44.2945 32.496ZM43.2385 25.104C41.7025 25.104 40.2838 24.7627 38.9825 24.08C37.7025 23.376 36.6678 22.4053 35.8785 21.168C35.1105 19.9093 34.7265 18.4267 34.7265 16.72C34.7265 15.0133 35.1105 13.5413 35.8785 12.304C36.6678 11.0453 37.7025 10.0747 38.9825 9.392C40.2838 8.70933 41.7025 8.368 43.2385 8.368C44.7105 8.368 45.9692 8.66667 47.0145 9.264C48.0598 9.84 48.8492 10.7467 49.3825 11.984C49.9372 13.2213 50.2145 14.8 50.2145 16.72C50.2145 18.64 49.9372 20.2187 49.3825 21.456C48.8492 22.6933 48.0598 23.6107 47.0145 24.208C45.9692 24.8053 44.7105 25.104 43.2385 25.104ZM44.6785 20.272C45.4038 20.272 46.0438 20.1227 46.5985 19.824C47.1745 19.5253 47.6225 19.1093 47.9425 18.576C48.2838 18.0427 48.4545 17.424 48.4545 16.72C48.4545 16.016 48.2838 15.3973 47.9425 14.864C47.6225 14.3307 47.1745 13.9253 46.5985 13.648C46.0438 13.3493 45.4038 13.2 44.6785 13.2C43.9532 13.2 43.3025 13.3493 42.7265 13.648C42.1505 13.9253 41.6918 14.3307 41.3505 14.864C41.0305 15.3973 40.8705 16.016 40.8705 16.72C40.8705 17.424 41.0305 18.0427 41.3505 18.576C41.6918 19.1093 42.1505 19.5253 42.7265 19.824C43.3025 20.1227 43.9532 20.272 44.6785 20.272ZM58.477 26V8.656H64.269V13.712L63.405 12.272C63.917 10.9707 64.749 10 65.901 9.36C67.053 8.69867 68.4503 8.368 70.093 8.368V13.84C69.8157 13.7973 69.5703 13.776 69.357 13.776C69.165 13.7547 68.9517 13.744 68.717 13.744C67.4797 13.744 66.477 14.0853 65.709 14.768C64.941 15.4293 64.557 16.5173 64.557 18.032V26H58.477ZM81.6338 26.288C79.5858 26.288 77.7938 25.904 76.2578 25.136C74.7431 24.3467 73.5591 23.28 72.7057 21.936C71.8738 20.5707 71.4578 19.024 71.4578 17.296C71.4578 15.568 71.8631 14.032 72.6738 12.688C73.5058 11.3227 74.6471 10.2667 76.0978 9.52C77.5484 8.752 79.1804 8.368 80.9938 8.368C82.7004 8.368 84.2578 8.72 85.6658 9.424C87.0738 10.1067 88.1938 11.12 89.0258 12.464C89.8578 13.808 90.2738 15.44 90.2738 17.36C90.2738 17.5733 90.2631 17.8187 90.2418 18.096C90.2204 18.3733 90.1991 18.6293 90.1778 18.864H76.4498V15.664H86.9458L84.6418 16.56C84.6631 15.7707 84.5138 15.088 84.1938 14.512C83.8951 13.936 83.4684 13.488 82.9138 13.168C82.3804 12.848 81.7511 12.688 81.0258 12.688C80.3004 12.688 79.6604 12.848 79.1058 13.168C78.5724 13.488 78.1564 13.9467 77.8578 14.544C77.5591 15.12 77.4098 15.8027 77.4098 16.592V17.52C77.4098 18.3733 77.5804 19.1093 77.9218 19.728C78.2844 20.3467 78.7964 20.8267 79.4578 21.168C80.1191 21.488 80.9084 21.648 81.8258 21.648C82.6791 21.648 83.4044 21.5307 84.0018 21.296C84.6204 21.04 85.2284 20.656 85.8258 20.144L89.0258 23.472C88.1938 24.3893 87.1698 25.0933 85.9538 25.584C84.7378 26.0533 83.2978 26.288 81.6338 26.288Z" fill="white"/>
<path d="M100.729 26.288C99.1503 26.288 97.7103 25.9253 96.409 25.2C95.129 24.4533 94.105 23.4187 93.337 22.096C92.569 20.752 92.185 19.152 92.185 17.296C92.185 15.4613 92.569 13.8827 93.337 12.56C94.105 11.216 95.129 10.1813 96.409 9.456C97.7103 8.73067 99.1503 8.368 100.729 8.368C102.222 8.368 103.481 8.688 104.505 9.328C105.55 9.968 106.34 10.9493 106.873 12.272C107.406 13.5947 107.673 15.2693 107.673 17.296C107.673 19.3653 107.417 21.0613 106.905 22.384C106.393 23.7067 105.625 24.688 104.601 25.328C103.577 25.968 102.286 26.288 100.729 26.288ZM102.009 21.456C102.692 21.456 103.3 21.296 103.833 20.976C104.388 20.656 104.825 20.1867 105.145 19.568C105.465 18.928 105.625 18.1707 105.625 17.296C105.625 16.4213 105.465 15.6853 105.145 15.088C104.825 14.4693 104.388 14 103.833 13.68C103.3 13.36 102.692 13.2 102.009 13.2C101.305 13.2 100.676 13.36 100.121 13.68C99.5877 14 99.161 14.4693 98.841 15.088C98.521 15.6853 98.361 16.4213 98.361 17.296C98.361 18.1707 98.521 18.928 98.841 19.568C99.161 20.1867 99.5877 20.656 100.121 20.976C100.676 21.296 101.305 21.456 102.009 21.456ZM105.817 26V23.024L105.849 17.296L105.529 11.568V2.256H111.609V26H105.817ZM115.621 26V8.656H121.701V26H115.621ZM118.661 6.736C117.551 6.736 116.655 6.42666 115.973 5.808C115.29 5.18933 114.949 4.42133 114.949 3.504C114.949 2.58667 115.29 1.81867 115.973 1.2C116.655 0.581333 117.551 0.271999 118.661 0.271999C119.77 0.271999 120.666 0.570666 121.349 1.168C122.031 1.744 122.373 2.49067 122.373 3.408C122.373 4.368 122.031 5.168 121.349 5.808C120.687 6.42666 119.791 6.736 118.661 6.736ZM132.056 26.288C130.584 26.288 129.144 26.1173 127.736 25.776C126.349 25.4347 125.229 25.008 124.376 24.496L126.2 20.336C127.011 20.8267 127.96 21.2213 129.048 21.52C130.136 21.7973 131.203 21.936 132.248 21.936C133.272 21.936 133.976 21.8293 134.36 21.616C134.765 21.4027 134.968 21.1147 134.968 20.752C134.968 20.4107 134.776 20.1653 134.392 20.016C134.029 19.8453 133.539 19.7173 132.92 19.632C132.323 19.5467 131.661 19.4507 130.936 19.344C130.211 19.2373 129.475 19.0987 128.728 18.928C128.003 18.736 127.331 18.4587 126.712 18.096C126.115 17.712 125.635 17.2 125.272 16.56C124.909 15.92 124.728 15.1093 124.728 14.128C124.728 13.0187 125.048 12.0373 125.688 11.184C126.349 10.3093 127.309 9.62667 128.568 9.136C129.827 8.624 131.363 8.368 133.176 8.368C134.392 8.368 135.619 8.496 136.856 8.752C138.115 8.98667 139.171 9.34933 140.024 9.84L138.2 13.968C137.347 13.4773 136.493 13.1467 135.64 12.976C134.787 12.784 133.976 12.688 133.208 12.688C132.184 12.688 131.459 12.8053 131.032 13.04C130.627 13.2747 130.424 13.5627 130.424 13.904C130.424 14.2453 130.605 14.512 130.968 14.704C131.331 14.8747 131.811 15.0133 132.408 15.12C133.027 15.2053 133.699 15.3013 134.424 15.408C135.149 15.4933 135.875 15.632 136.6 15.824C137.347 16.016 138.019 16.304 138.616 16.688C139.235 17.0507 139.725 17.552 140.088 18.192C140.451 18.8107 140.632 19.6107 140.632 20.592C140.632 21.6587 140.301 22.6187 139.64 23.472C139 24.3253 138.04 25.008 136.76 25.52C135.501 26.032 133.933 26.288 132.056 26.288ZM154.648 8.368C155.992 8.368 157.208 8.64533 158.296 9.2C159.384 9.73333 160.237 10.5653 160.856 11.696C161.496 12.8267 161.816 14.288 161.816 16.08V26H155.736V17.072C155.736 15.8347 155.48 14.9387 154.968 14.384C154.477 13.808 153.784 13.52 152.888 13.52C152.248 13.52 151.661 13.6693 151.128 13.968C150.595 14.2453 150.179 14.6827 149.88 15.28C149.581 15.8773 149.432 16.656 149.432 17.616V26H143.352V2.256H149.432V13.584L148.024 12.144C148.685 10.8853 149.592 9.94667 150.744 9.328C151.896 8.688 153.197 8.368 154.648 8.368Z" fill="#D9D0FF"/>
<circle cx="118.5" cy="3.5" r="3.5" fill="#FFEAAA"/>
</svg>
