<svg width="106" height="106" viewBox="0 0 106 106" fill="none" xmlns="http://www.w3.org/2000/svg">
<path d="M3 3H11.5366L15.1951 19.6667M15.1951 19.6667L27.3902 75.2222H90.8049L103 19.6667H15.1951Z" stroke="black" stroke-width="5" stroke-linecap="round" stroke-linejoin="round"/>
<path d="M27.3902 103C31.4313 103 34.7073 99.269 34.7073 94.6666C34.7073 90.0643 31.4313 86.3333 27.3902 86.3333C23.3491 86.3333 20.0731 90.0643 20.0731 94.6666C20.0731 99.269 23.3491 103 27.3902 103Z" stroke="black" stroke-width="5" stroke-linecap="round" stroke-linejoin="round"/>
<path d="M90.8049 103C94.846 103 98.1219 99.269 98.1219 94.6666C98.1219 90.0643 94.846 86.3333 90.8049 86.3333C86.7638 86.3333 83.4878 90.0643 83.4878 94.6666C83.4878 99.269 86.7638 103 90.8049 103Z" stroke="black" stroke-width="5" stroke-linecap="round" stroke-linejoin="round"/>
</svg>
